<svg version="1.1" xmlns="http://www.w3.org/2000/svg" xmlns:xlink="http://www.w3.org/1999/xlink" viewBox="0 0 35.6348 17.4707">
 <g>
  <rect height="17.4707" opacity="0" width="35.6348" x="0" y="0"/>
  <path d="M5.15625 17.4609C5.78125 17.4609 6.30859 17.2754 6.875 16.8555L14.8926 10.7324C16.5332 9.48242 17.0703 8.33008 17.0703 5.85938C17.0703 3.53516 15.2148 0 11.2012 0C4.17969 0 0 10.1758 0 13.3008C0 13.8672 0.302734 14.2676 0.859375 14.2676C1.44531 14.2676 2.76367 13.4473 2.87109 12.0605C2.98828 10.4785 3.06641 9.53125 3.58398 8.06641C4.51172 5.40039 7.62695 1.61133 11.1035 1.61133C13.5254 1.61133 15.1855 3.54492 15.1855 5.09766C15.1855 5.76172 14.873 6.26953 13.8379 6.36719C12.7832 6.47461 12.2168 6.65039 11.3184 7.33398L3.75977 13.125C3.1543 13.5938 2.76367 14.2383 2.76367 15.0586C2.76367 16.416 3.82812 17.4609 5.15625 17.4609ZM5.15625 16.4746C4.375 16.4746 3.75 15.8496 3.75 15.0586C3.75 14.2773 4.375 13.6523 5.15625 13.6523C5.95703 13.6523 6.58203 14.2773 6.58203 15.0586C6.58203 15.8496 5.95703 16.4746 5.15625 16.4746ZM5.15625 15.8594C5.61523 15.8594 5.9668 15.498 5.9668 15.0586C5.9668 14.6191 5.61523 14.2676 5.15625 14.2676C4.72656 14.2676 4.375 14.6191 4.375 15.0586C4.375 15.498 4.72656 15.8594 5.15625 15.8594ZM30.1172 17.4609C31.4453 17.4609 32.5098 16.416 32.5098 15.0586C32.5098 14.2383 32.1289 13.5938 31.5234 13.125L23.9648 7.33398C23.0664 6.65039 22.4902 6.47461 21.4453 6.36719C20.4004 6.26953 20.0879 5.76172 20.0879 5.09766C20.0879 3.54492 21.7578 1.61133 24.1699 1.61133C27.6465 1.61133 30.7617 5.40039 31.6992 8.06641C32.207 9.53125 32.2949 10.4785 32.4023 12.0605C32.5098 13.4473 33.8281 14.2676 34.4141 14.2676C34.9707 14.2676 35.2734 13.8672 35.2734 13.3008C35.2734 10.1758 31.1035 0 24.082 0C20.0684 0 18.2129 3.53516 18.2129 5.85938C18.2129 8.33008 18.75 9.48242 20.3809 10.7324L28.4082 16.8555C28.9648 17.2754 29.4922 17.4609 30.1172 17.4609ZM30.1172 16.4746C29.3262 16.4746 28.7012 15.8496 28.7012 15.0586C28.7012 14.2773 29.3262 13.6523 30.1172 13.6523C30.8984 13.6523 31.5234 14.2773 31.5234 15.0586C31.5234 15.8496 30.8984 16.4746 30.1172 16.4746ZM30.1172 15.8594C30.5566 15.8594 30.8984 15.498 30.8984 15.0586C30.8984 14.6191 30.5566 14.2676 30.1172 14.2676C29.668 14.2676 29.3066 14.6191 29.3066 15.0586C29.3066 15.498 29.668 15.8594 30.1172 15.8594Z" fill="white"/>
  <path d="M5.15625 16.4746C4.375 16.4746 3.75 15.8496 3.75 15.0586C3.75 14.2773 4.375 13.6523 5.15625 13.6523C5.95703 13.6523 6.58203 14.2773 6.58203 15.0586C6.58203 15.8496 5.95703 16.4746 5.15625 16.4746ZM5.15625 15.8594C5.61523 15.8594 5.9668 15.498 5.9668 15.0586C5.9668 14.6191 5.61523 14.2676 5.15625 14.2676C4.72656 14.2676 4.375 14.6191 4.375 15.0586C4.375 15.498 4.72656 15.8594 5.15625 15.8594ZM30.1172 16.4746C29.3262 16.4746 28.7012 15.8496 28.7012 15.0586C28.7012 14.2773 29.3262 13.6523 30.1172 13.6523C30.8984 13.6523 31.5234 14.2773 31.5234 15.0586C31.5234 15.8496 30.8984 16.4746 30.1172 16.4746ZM30.1172 15.8594C30.5566 15.8594 30.8984 15.498 30.8984 15.0586C30.8984 14.6191 30.5566 14.2676 30.1172 14.2676C29.668 14.2676 29.3066 14.6191 29.3066 15.0586C29.3066 15.498 29.668 15.8594 30.1172 15.8594Z" fill="white"/>
 </g>
</svg>
